#!OML:ASF F:\VICON\USERDATA\INSTALL\rory3\rory3.ASF
:FULLY-SPECIFIED
:DEGREES
2457
root 9.53593 17.8298 0.748745 -908.781 43.7075 174.467
lowerback 12.0991 1.34556 -4.75096
upperback 1.17454 1.22275 -0.509741
thorax -5.63979 0.749735 1.93436
lowerneck -18.9519 -2.98851 -8.7571
upperneck 30.3428 -1.70416 4.18144
head 13.5701 -0.817638 2.96362
rclavicle 8.89437e-014 -1.28216e-014
rhumerus -36.1467 -8.90584 -80.9125
rradius 29.3046
rwrist 6.36081
rhand -15.6 8.44423
rfingers 7.12502
rthumb 10.586 -21.2691
lclavicle 8.89437e-014 -1.28216e-014
lhumerus -33.4246 -0.93512 82.4506
lradius 38.5067
lwrist -2.76153
lhand -15.9084 25.3584
lfingers 7.12502
lthumb 10.2885 55.0868
rfemur -21.6378 -4.03025 12.3533
rtibia 52.194
rfoot -8.94032 -7.50432
rtoes -3.13289
lfemur 0.0505913 1.49636 -29.5877
ltibia 18.9153
lfoot -11.0362 -4.21212
ltoes 2.22332
2458
root 9.61111 17.8229 0.675637 -908.676 43.6271 174.424
lowerback 12.0227 1.29216 -4.8753
upperback 1.09609 1.13583 -0.450036
thorax -5.67798 0.710638 2.08257
lowerneck -18.8244 -2.96697 -8.86781
upperneck 30.2193 -1.66682 4.22367
head 13.4891 -0.808965 3.00139
rclavicle 3.18304e-014 -1.13307e-014
rhumerus -36.3042 -8.96249 -80.717
rradius 29.3497
rwrist 6.48089
rhand -15.3175 8.88905
rfingers 7.12502
rthumb 10.8585 -20.8102
lclavicle 3.18304e-014 -1.13307e-014
lhumerus -33.1917 -1.3562 82.5315
lradius 38.4801
lwrist -2.49683
lhand -15.9409 25.2031
lfingers 7.12502
lthumb 10.2572 54.933
rfemur -21.9428 -3.7577 12.1965
rtibia 50.2678
rfoot -9.15538 -7.90927
rtoes -3.74378
lfemur 0.325083 1.74213 -29.5856
ltibia 18.8277
lfoot -11.2184 -4.56892
ltoes 2.80134
2459
root 9.68716 17.8216 0.600061 -908.648 43.5311 174.289
lowerback 11.8963 1.25788 -5.04511
upperback 1.08584 1.07593 -0.404673
thorax -5.61799 0.683975 2.23805
lowerneck -18.903 -2.9782 -8.98865
upperneck 30.1181 -1.64831 4.22267
head 13.4637 -0.818403 3.02081
rclavicle 8.11601e-014 -9.34288e-015
rhumerus -36.3392 -9.13133 -80.4615
rradius 29.3523
rwrist 6.73104
rhand -15.2681 8.93015
rfingers 7.12502
rthumb 10.9061 -20.7666
lclavicle 8.11601e-014 -9.34288e-015
lhumerus -32.8677 -1.47809 82.5756
lradius 38.3898
lwrist -2.68016
lhand -16.022 24.8231
lfingers 7.12502
lthumb 10.179 54.5569
rfemur -22.1885 -3.51005 11.9136
rtibia 48.2776
rfoot -9.30307 -8.24654
rtoes -2.72494
lfemur 0.659561 1.73654 -29.7045
ltibia 18.6857
lfoot -11.3228 -4.7519
ltoes 3.24644
2460
root 9.76525 17.8169 0.528405 -908.622 43.438 174.138
lowerback 11.7938 1.21627 -5.25263
upperback 1.06401 0.998658 -0.387461
thorax -5.58184 0.650128 2.38733
lowerneck -19.0498 -2.97824 -8.98431
upperneck 30.0992 -1.62508 4.1597
head 13.4848 -0.819385 2.99774
rclavicle -1.96859e-014 -5.56597e-015
rhumerus -36.4491 -9.11314 -80.3659
rradius 29.5161
rwrist 6.69598
rhand -15.2385 8.7583
rfingers 7.12502
rthumb 10.9348 -20.937
lclavicle -1.96859e-014 -5.56597e-015
lhumerus -32.6537 -1.43439 82.4769
lradius 38.4332
lwrist -2.93523
lhand -16.1464 24.4562
lfingers 7.12502
lthumb 10.0589 54.1958
rfemur -22.4311 -3.25805 11.6309
rtibia 46.2141
rfoot -9.02791 -8.55748
rtoes -1.47418
lfemur 1.04801 1.68847 -29.8194
ltibia 18.4231
lfoot -11.336 -4.97228
ltoes 3.48677
2461
root 9.845 17.8121 0.459738 -908.552 43.2741 174.099
lowerback 11.7925 1.18694 -5.36238
upperback 1.01174 0.940889 -0.413243
thorax -5.63315 0.625681 2.43119
lowerneck -19.1044 -2.9848 -8.85008
upperneck 30.0513 -1.68167 4.14938
head 13.4778 -0.83163 2.95906
rclavicle 6.5748e-014 -1.15295e-014
rhumerus -36.6692 -9.54549 -80.2425
rradius 29.6716
rwrist 6.94704
rhand -15.1447 8.77255
rfingers 7.12502
rthumb 11.0252 -20.9179
lclavicle 6.5748e-014 -1.15295e-014
lhumerus -32.478 -1.8171 82.3981
lradius 38.5192
lwrist -2.9407
lhand -16.3013 24.4291
lfingers 7.12502
lthumb 9.90944 54.1759
rfemur -22.5721 -3.07855 11.4811
rtibia 44.0758
rfoot -8.62624 -8.91625
rtoes -2.01146
lfemur 1.54011 1.76882 -29.8015
ltibia 18.0396
lfoot -11.4706 -5.21675
ltoes 3.31273
2462
root 9.92231 17.8176 0.387981 -908.388 43.0168 174.273
lowerback 11.8363 1.09313 -5.27534
upperback 1.01113 0.82505 -0.416921
thorax -5.64729 0.567137 2.3972
lowerneck -19.2019 -2.95743 -8.6715
upperneck 29.9634 -1.70072 4.12228
head 13.4586 -0.826019 2.91092
rclavicle -2.60097e-014 1.47101e-014
rhumerus -36.826 -9.83601 -80.2473
rradius 29.8349
rwrist 6.85762
rhand -15.3279 8.67119
rfingers 7.12502
rthumb 10.8485 -21.0286
lclavicle -2.60097e-014 1.47101e-014
lhumerus -32.2116 -2.26344 82.3403
lradius 38.563
lwrist -2.86077
lhand -16.2722 24.813
lfingers 7.12502
lthumb 9.93759 54.5584
rfemur -22.533 -2.81062 11.4487
rtibia 41.8693
rfoot -8.1475 -9.31775
rtoes -2.29067
lfemur 2.09662 1.72665 -29.6271
ltibia 17.6397
lfoot -11.6794 -5.27193
ltoes 2.9782
2463
root 9.99903 17.8236 0.315997 -908.209 42.7923 174.475
lowerback 11.8448 0.962826 -5.21102
upperback 1.03502 0.664483 -0.349899
thorax -5.61362 0.486228 2.45864
lowerneck -19.3485 -2.89558 -8.60778
upperneck 29.9369 -1.61631 4.08202
head 13.47 -0.790172 2.89707
rclavicle 5.28643e-014 5.56597e-015
rhumerus -36.9455 -9.57546 -80.3337
rradius 30.0995
rwrist 6.35753
rhand -15.5313 8.61146
rfingers 7.12502
rthumb 10.6523 -21.0985
lclavicle 5.28643e-014 5.56597e-015
lhumerus -31.9431 -2.39444 82.2664
lradius 38.562
lwrist -2.76568
lhand -15.8622 24.9371
lfingers 7.12502
lthumb 10.3331 54.6633
rfemur -22.4776 -2.38605 11.3946
rtibia 39.618
rfoot -7.4101 -9.57159
rtoes -1.79515
lfemur 2.63419 1.66205 -29.4332
ltibia 17.2551
lfoot -11.8073 -5.38249
ltoes 3.07283
2464
root 10.079 17.8189 0.23766 -908.207 42.6411 174.414
lowerback 11.7735 0.871155 -5.28052
upperback 1.01913 0.537615 -0.324877
thorax -5.58111 0.424765 2.54581
lowerneck -19.3254 -2.87201 -8.77206
upperneck 29.8915 -1.57072 4.20361
head 13.4454 -0.773112 2.98001
rclavicle -1.13251e-013 -3.06128e-014
rhumerus -37.1334 -9.43359 -80.2738
rradius 30.2797
rwrist 6.2099
rhand -15.4048 8.56426
rfingers 7.12502
rthumb 10.7743 -21.1394
lclavicle -1.13251e-013 -3.06128e-014
lhumerus -31.8469 -2.34565 82.1887
lradius 38.6227
lwrist -2.66443
lhand -15.8313 24.8511
lfingers 7.12502
lthumb 10.3629 54.5757
rfemur -22.4552 -2.19205 11.1359
rtibia 37.3607
rfoot -6.46209 -9.3665
rtoes -2.36613
lfemur 3.20066 1.50486 -29.5074
ltibia 16.8816
lfoot -11.9877 -5.26593
ltoes 2.29476
2465
root 10.1613 17.8163 0.156037 -908.188 42.4497 174.323
lowerback 11.5935 0.772075 -5.32065
upperback 1.02245 0.411422 -0.31905
thorax -5.46684 0.36036 2.59636
lowerneck -19.3426 -2.8889 -9.00464
upperneck 29.8363 -1.56449 4.34023
head 13.4298 -0.779937 3.07346
rclavicle 2.19657e-014 -1.98785e-016
rhumerus -37.218 -9.73149 -80.07
rradius 30.2874
rwrist 6.37852
rhand -15.2826 8.56395
rfingers 7.12502
rthumb 10.8922 -21.1335
lclavicle 2.19657e-014 -1.98785e-016
lhumerus -31.7138 -2.1751 82.1115
lradius 38.6299
lwrist -2.88232
lhand -16.4474 24.4598
lfingers 7.12502
lthumb 9.76855 54.2133
rfemur -22.4159 -2.16033 10.8521
rtibia 35.1395
rfoot -5.42396 -8.93503
rtoes -2.82213
lfemur 3.73375 1.34573 -29.6061
ltibia 16.5387
lfoot -12.2071 -5.20986
ltoes 1.67251
2466
root 10.2399 17.8202 0.083222 -907.953 42.1828 174.466
lowerback 11.4164 0.638488 -5.21864
upperback 1.07276 0.260528 -0.314589
thorax -5.30137 0.279032 2.56862
lowerneck -19.5026 -2.87827 -8.92559
upperneck 29.6605 -1.57478 4.30095
head 13.3882 -0.78639 3.03553
rclavicle -4.14715e-014 1.49089e-014
rhumerus -37.179 -10.1496 -79.9826
rradius 30.266
rwrist 6.46253
rhand -15.4296 8.64408
rfingers 7.12502
rthumb 10.7504 -21.0608
lclavicle -4.14715e-014 1.49089e-014
lhumerus -31.4007 -2.05447 81.9372
lradius 38.572
lwrist -3.24752
lhand -16.8772 24.3188
lfingers 7.12502
lthumb 9.35382 54.0913
rfemur -22.4469 -2.0497 10.7308
rtibia 33.0235
rfoot -4.60745 -8.41366
rtoes -2.77499
lfemur 4.16413 1.27062 -29.4674
ltibia 16.18
lfoot -12.32 -5.4031
ltoes 1.51024
2467
root 10.3179 17.8195 0.0109422 -907.647 42.0238 174.697
lowerback 11.2632 0.562246 -4.98301
upperback 1.09344 0.196203 -0.354729
thorax -5.1877 0.23849 2.40413
lowerneck -19.6192 -2.88907 -8.74606
upperneck 29.5001 -1.67443 4.32743
head 13.3495 -0.810324 2.99222
rclavicle 8.92481e-014 -1.80894e-014
rhumerus -37.2643 -10.5451 -80.0155
rradius 30.4091
rwrist 6.5693
rhand -15.4791 8.50796
rfingers 7.12502
rthumb 10.7026 -21.1994
lclavicle 8.92481e-014 -1.80894e-014
lhumerus -31.0672 -2.3786 81.7856
lradius 38.4686
lwrist -3.15134
lhand -16.8413 24.6642
lfingers 7.12502
lthumb 9.38845 54.4352
rfemur -22.4965 -1.59076 10.667
rtibia 31.017
rfoot -4.29202 -7.98344
rtoes -3.65729
lfemur 4.59688 1.14423 -29.2723
ltibia 15.8112
lfoot -12.413 -5.43784
ltoes 1.52485
